<svg xmlns="http://www.w3.org/2000/svg" viewBox="0 0 184 48" width="184" height="48" role="img" aria-label="YouTube"><title>YouTube</title><defs><filter id="blur" x="-60%" y="-60%" width="220%" height="220%"><feGaussianBlur stdDeviation="62"/></filter></defs><rect x="0.0" y="0.0" width="184.0" height="48.0" fill="#FFFFFF"/><clipPath id="lkyoutube"><rect x="2.0" y="2.0" width="180.0" height="44.0" rx="12"/></clipPath><rect x="2.0" y="2.0" width="180.0" height="44.0" rx="12" fill="#FFFFFF"/><g clip-path="url(#lkyoutube)" filter="url(#blur)"><circle cx="34.4" cy="24.0" r="52.0" fill="#C94357" opacity="0.1"/></g><rect x="2.0" y="2.0" width="180.0" height="44.0" rx="12" fill="#1B1F24" opacity="0.035"/><rect x="2.5" y="2.5" width="179.0" height="43.0" rx="12" fill="none" stroke="#FFFFFF" stroke-width="1" opacity="0.55"/><rect x="2.5" y="2.5" width="179.0" height="43.0" rx="12" fill="none" stroke="#D9DEE5" stroke-width="1" opacity="0.9"/><path d="M14.0 2.8 H170.0" stroke="#FFFFFF" stroke-width="1.2" opacity="0.95" fill="none" stroke-linecap="round"/><rect x="14.0" y="15.0" width="3.0" height="18.0" fill="#C94357"/><g transform="translate(28.0,14.0) scale(0.8333)" fill="#1B1F24" opacity="0.92"><path d="M23.498 6.186a3.016 3.016 0 0 0-2.122-2.136C19.505 3.545 12 3.545 12 3.545s-7.505 0-9.377.505A3.017 3.017 0 0 0 .502 6.186C0 8.07 0 12 0 12s0 3.93.502 5.814a3.016 3.016 0 0 0 2.122 2.136c1.871.505 9.376.505 9.376.505s7.505 0 9.377-.505a3.015 3.015 0 0 0 2.122-2.136C24 15.93 24 12 24 12s0-3.93-.502-5.814zM9.545 15.568V8.432L15.818 12l-6.273 3.568z"/></g><text x="60.0" y="28.5" font-family="ui-monospace,SFMono-Regular,'SF Mono',Menlo,Consolas,'Liberation Mono',monospace" font-size="13" font-weight="500" fill="#1B1F24" text-anchor="start">YouTube</text></svg>