<svg xmlns="http://www.w3.org/2000/svg" viewBox="0 0 184 48" width="184" height="48" role="img" aria-label="LinkedIn"><title>LinkedIn</title><defs><filter id="blur" x="-60%" y="-60%" width="220%" height="220%"><feGaussianBlur stdDeviation="62"/></filter></defs><rect x="0.0" y="0.0" width="184.0" height="48.0" fill="#0A0A0A"/><clipPath id="lklinkedin"><rect x="2.0" y="2.0" width="180.0" height="44.0" rx="12"/></clipPath><rect x="2.0" y="2.0" width="180.0" height="44.0" rx="12" fill="#0A0A0A"/><g clip-path="url(#lklinkedin)" filter="url(#blur)"><circle cx="34.4" cy="24.0" r="52.0" fill="#6E9BE8" opacity="0.12"/></g><rect x="2.0" y="2.0" width="180.0" height="44.0" rx="12" fill="#FFFFFF" opacity="0.045"/><rect x="2.5" y="2.5" width="179.0" height="43.0" rx="12" fill="none" stroke="#FFFFFF" stroke-width="1" opacity="0.1"/><rect x="2.5" y="2.5" width="179.0" height="43.0" rx="12" fill="none" stroke="#262B33" stroke-width="1" opacity="0.9"/><path d="M14.0 2.8 H170.0" stroke="#FFFFFF" stroke-width="1.2" opacity="0.26" fill="none" stroke-linecap="round"/><rect x="14.0" y="15.0" width="3.0" height="18.0" fill="#6E9BE8"/><g transform="translate(28.0,14.0) scale(0.8333)" fill="#E8EDF2" opacity="0.92"><path d="M2 2h20v20H2z M0 0v24h24V0zm6.6 18.4H4.2V9.6h2.4zM5.4 8.5a1.4 1.4 0 1 1 0-2.8 1.4 1.4 0 0 1 0 2.8zM19.8 18.4h-2.4v-4.6c0-1.2-.4-2-1.5-2-.8 0-1.3.6-1.5 1.1-.1.2-.1.5-.1.8v4.7h-2.4s.03-7.9 0-8.8h2.4v1.3c.3-.5 .9-1.3 2.3-1.3 1.7 0 3 1.1 3 3.5z"/></g><text x="60.0" y="28.5" font-family="ui-monospace,SFMono-Regular,'SF Mono',Menlo,Consolas,'Liberation Mono',monospace" font-size="13" font-weight="500" fill="#E8EDF2" text-anchor="start">LinkedIn</text></svg>